<svg width="35" height="35" viewBox="0 0 35 35" fill="none" xmlns="http://www.w3.org/2000/svg">
<path d="M31.1824 0.00787354H3.93203C2.94649 0.00787354 2.00132 0.399376 1.30444 1.09625C0.607566 1.79313 0.216064 2.7383 0.216064 3.72383L0.216064 30.9742C0.216064 31.9598 0.607566 32.9049 1.30444 33.6018C2.00132 34.2987 2.94649 34.6902 3.93203 34.6902H14.5574V22.899H9.68015V17.349H14.5574V13.119C14.5574 8.30763 17.4217 5.64994 21.8089 5.64994C23.91 5.64994 26.107 6.02463 26.107 6.02463V10.747H23.6862C21.3011 10.747 20.5571 12.2272 20.5571 13.7453V17.349H25.8817L25.0302 22.899H20.5571V34.6902H31.1824C32.1679 34.6902 33.1131 34.2987 33.81 33.6018C34.5069 32.9049 34.8984 31.9598 34.8984 30.9742V3.72383C34.8984 2.7383 34.5069 1.79313 33.81 1.09625C33.1131 0.399376 32.1679 0.00787354 31.1824 0.00787354Z" fill="white"/>
</svg>
