<svg width="46" height="45" viewBox="0 0 46 45" fill="none" xmlns="http://www.w3.org/2000/svg">
<g filter="url(#filter0_d_102_12979)">
<path d="M22.9925 0.666504C13.0024 0.666504 4.90149 8.97095 4.90149 19.2154C4.90149 27.4108 10.0851 34.3638 17.2733 36.8164C18.1774 36.9881 18.5093 36.4141 18.5093 35.9241C18.5093 35.4818 18.4926 34.0207 18.4848 32.4707C13.4518 33.5928 12.3898 30.2822 12.3898 30.2822C11.5669 28.1382 10.3811 27.5681 10.3811 27.5681C8.73971 26.4168 10.5048 26.4405 10.5048 26.4405C12.3215 26.5714 13.2781 28.352 13.2781 28.352C14.8916 31.1877 17.5102 30.3679 18.5426 29.8939C18.705 28.6951 19.1738 27.8768 19.6912 27.4136C15.6729 26.9446 11.4488 25.3541 11.4488 18.2466C11.4488 16.2215 12.1555 14.5668 13.3128 13.2678C13.125 12.8006 12.5057 10.9141 13.4881 8.35908C13.4881 8.35908 15.0072 7.86055 18.4644 10.2604C19.9075 9.84943 21.4551 9.64332 22.9925 9.63626C24.53 9.64332 26.0788 9.84943 27.5246 10.2604C30.9776 7.86055 32.4946 8.35908 32.4946 8.35908C33.4794 10.9141 32.8598 12.8006 32.672 13.2678C33.832 14.5668 34.5339 16.2215 34.5339 18.2466C34.5339 25.371 30.3017 26.9396 26.2733 27.3988C26.9221 27.9745 27.5003 29.1033 27.5003 30.8338C27.5003 33.3157 27.4794 35.3132 27.4794 35.9241C27.4794 36.4177 27.805 36.9961 28.722 36.814C35.9063 34.3585 41.0833 27.4081 41.0833 19.2154C41.0833 8.97095 32.9836 0.666504 22.9925 0.666504Z" fill="#161514"/>
<path d="M11.8068 27.1714C11.7671 27.2627 11.6259 27.29 11.4974 27.2274C11.3664 27.1675 11.2928 27.0431 11.3353 26.9515C11.3742 26.8575 11.5156 26.8314 11.6463 26.8943C11.7775 26.9543 11.8523 27.0799 11.8068 27.1714Z" fill="#161514"/>
<path d="M12.5382 28.0011C12.4521 28.0823 12.2838 28.0446 12.1695 27.9162C12.0514 27.7882 12.0293 27.617 12.1166 27.5345C12.2054 27.4533 12.3687 27.4913 12.4871 27.6194C12.6052 27.7489 12.6282 27.919 12.5382 28.0011Z" fill="#161514"/>
<path d="M13.2502 29.0589C13.1396 29.1371 12.9587 29.0638 12.8468 28.9004C12.7362 28.7371 12.7362 28.5413 12.8492 28.4628C12.9614 28.3843 13.1396 28.4549 13.2529 28.617C13.3633 28.783 13.3633 28.9789 13.2502 29.0589Z" fill="#161514"/>
<path d="M14.2256 30.0808C14.1266 30.1918 13.9158 30.162 13.7615 30.0105C13.6037 29.8624 13.5597 29.6523 13.659 29.5412C13.7591 29.4299 13.9712 29.4613 14.1266 29.6115C14.2833 29.7593 14.3312 29.971 14.2256 30.0808Z" fill="#161514"/>
<path d="M15.5712 30.6741C15.5276 30.818 15.3245 30.8834 15.12 30.8223C14.9158 30.7593 14.7821 30.5908 14.8234 30.4454C14.8658 30.3007 15.0698 30.2325 15.2758 30.2979C15.4797 30.3606 15.6137 30.5279 15.5712 30.6741Z" fill="#161514"/>
<path d="M17.049 30.7842C17.0541 30.9357 16.8807 31.0613 16.666 31.064C16.4501 31.0689 16.2754 30.9463 16.273 30.7973C16.273 30.6443 16.4426 30.5199 16.6585 30.5163C16.8732 30.512 17.049 30.6337 17.049 30.7842Z" fill="#161514"/>
<path d="M18.4242 30.5461C18.4499 30.6939 18.3007 30.8457 18.0875 30.8861C17.8779 30.9251 17.6838 30.8338 17.6572 30.6872C17.6312 30.5358 17.7831 30.384 17.9924 30.3448C18.2059 30.3071 18.397 30.3959 18.4242 30.5461Z" fill="#161514"/>
</g>
<defs>
<filter id="filter0_d_102_12979" x="0.901489" y="0.666504" width="44.1818" height="44.1818" filterUnits="userSpaceOnUse" color-interpolation-filters="sRGB">
<feFlood flood-opacity="0" result="BackgroundImageFix"/>
<feColorMatrix in="SourceAlpha" type="matrix" values="0 0 0 0 0 0 0 0 0 0 0 0 0 0 0 0 0 0 127 0" result="hardAlpha"/>
<feOffset dy="4"/>
<feGaussianBlur stdDeviation="2"/>
<feComposite in2="hardAlpha" operator="out"/>
<feColorMatrix type="matrix" values="0 0 0 0 0 0 0 0 0 0 0 0 0 0 0 0 0 0 0.25 0"/>
<feBlend mode="normal" in2="BackgroundImageFix" result="effect1_dropShadow_102_12979"/>
<feBlend mode="normal" in="SourceGraphic" in2="effect1_dropShadow_102_12979" result="shape"/>
</filter>
</defs>
</svg>
