<svg width="35" height="35" viewBox="0 0 35 35" fill="none" xmlns="http://www.w3.org/2000/svg">
<path d="M17.6218 0.00787354C12.9077 0.00787354 12.3202 0.0306366 10.4753 0.108682C8.62278 0.199734 7.36972 0.486983 6.26409 0.91623C5.10692 1.35309 4.05895 2.03706 3.19323 2.92047C2.30736 3.78416 1.62301 4.83271 1.189 5.99132C0.759749 7.09696 0.4725 8.35001 0.381448 10.2025C0.297983 12.0485 0.28064 12.6349 0.28064 17.349C0.28064 22.0632 0.303403 22.6507 0.381448 24.4956C0.4725 26.3426 0.759749 27.6011 1.189 28.7067C1.62585 29.8639 2.30983 30.9119 3.19323 31.7776C4.05693 32.6635 5.10548 33.3478 6.26409 33.7818C7.36972 34.2057 8.6282 34.4983 10.4753 34.5894C12.3212 34.6728 12.9077 34.6902 17.6218 34.6902C22.3359 34.6902 22.9234 34.6674 24.7683 34.5894C26.6154 34.4983 27.8739 34.2046 28.9795 33.7818C30.1367 33.345 31.1846 32.661 32.0504 31.7776C32.9374 30.9148 33.6219 29.866 34.0546 28.7067C34.4784 27.6011 34.7711 26.3426 34.8621 24.4956C34.9456 22.6496 34.9629 22.0632 34.9629 17.349C34.9629 12.6349 34.9402 12.0474 34.8621 10.2025C34.7711 8.35543 34.4773 7.09045 34.0546 5.99132C33.6177 4.83415 32.9338 3.78619 32.0504 2.92047C31.1876 2.03345 30.1388 1.34892 28.9795 0.91623C27.8739 0.486983 26.6154 0.199734 24.7683 0.108682C22.9223 0.0252169 22.3359 0.00787354 17.6218 0.00787354ZM17.6218 3.12967C22.2514 3.12967 22.8042 3.15243 24.6339 3.23048C26.3216 3.30961 27.2408 3.59144 27.8511 3.82991C28.6056 4.1084 29.2884 4.55166 29.8499 5.12741C30.4247 5.68654 30.8663 6.36783 31.142 7.1208C31.3805 7.73107 31.6623 8.65027 31.7414 10.338C31.8195 12.1677 31.8422 12.7216 31.8422 17.3501C31.8422 21.9786 31.8195 22.5325 31.7349 24.3622C31.6439 26.05 31.362 26.9692 31.1247 27.5794C30.7962 28.3935 30.4298 28.9625 29.825 29.5782C29.2616 30.1504 28.5792 30.5915 27.8262 30.8703C27.2235 31.1088 26.2913 31.3906 24.5971 31.4697C22.7576 31.5478 22.2156 31.5705 17.5741 31.5705C12.9326 31.5705 12.3917 31.5478 10.5501 31.4632C8.86233 31.3722 7.93121 31.0904 7.32095 30.853C6.49714 30.5245 5.93239 30.1582 5.32755 29.5533C4.71728 28.943 4.32922 28.362 4.03005 27.5545C3.78724 26.9518 3.50975 26.0196 3.41978 24.3254C3.358 22.5076 3.32873 21.9439 3.32873 17.3241C3.32873 12.7064 3.358 12.1417 3.41978 10.3011C3.50975 8.60691 3.78724 7.67687 4.03005 7.07203C4.32922 6.24713 4.71836 5.68348 5.32755 5.07321C5.93131 4.46944 6.49714 4.07922 7.32095 3.77354C7.93121 3.53616 8.83957 3.25433 10.5338 3.16978C12.3733 3.10366 12.9153 3.07981 17.5503 3.07981L17.6218 3.12967ZM17.6218 8.44865C16.4526 8.44822 15.2947 8.6782 14.2144 9.12545C13.1341 9.57269 12.1526 10.2284 11.3258 11.0552C10.499 11.882 9.84329 12.8635 9.39605 13.9438C8.9488 15.0241 8.71882 16.182 8.71925 17.3512C8.71882 18.5204 8.9488 19.6783 9.39605 20.7586C9.84329 21.8389 10.499 22.8204 11.3258 23.6472C12.1526 24.474 13.1341 25.1297 14.2144 25.5769C15.2947 26.0242 16.4526 26.2542 17.6218 26.2537C18.791 26.2542 19.9489 26.0242 21.0292 25.5769C22.1095 25.1297 23.091 24.474 23.9178 23.6472C24.7446 22.8204 25.4003 21.8389 25.8475 20.7586C26.2948 19.6783 26.5248 18.5204 26.5243 17.3512C26.5248 16.182 26.2948 15.0241 25.8475 13.9438C25.4003 12.8635 24.7446 11.882 23.9178 11.0552C23.091 10.2284 22.1095 9.57269 21.0292 9.12545C19.9489 8.6782 18.791 8.44822 17.6218 8.44865ZM17.6218 23.1319C14.4263 23.1319 11.841 20.5467 11.841 17.3512C11.841 14.1557 14.4263 11.5704 17.6218 11.5704C20.8173 11.5704 23.4025 14.1557 23.4025 17.3512C23.4025 20.5467 20.8173 23.1319 17.6218 23.1319ZM28.9643 8.09311C28.9638 8.64557 28.7439 9.1752 28.353 9.56564C27.9622 9.95608 27.4323 10.1754 26.8799 10.1754C26.6067 10.1754 26.3362 10.1216 26.0839 10.0171C25.8315 9.91252 25.6022 9.7593 25.409 9.56614C25.2159 9.37299 25.0626 9.14368 24.9581 8.89131C24.8536 8.63894 24.7998 8.36845 24.7998 8.09528C24.7998 7.82212 24.8536 7.55163 24.9581 7.29926C25.0626 7.04688 25.2159 6.81757 25.409 6.62442C25.6022 6.43126 25.8315 6.27804 26.0839 6.17351C26.3362 6.06897 26.6067 6.01517 26.8799 6.01517C28.0256 6.01517 28.9643 6.94737 28.9643 8.09311Z" fill="white"/>
</svg>
