<svg width="36" height="35" viewBox="0 0 36 35" fill="none" xmlns="http://www.w3.org/2000/svg">
<path fill-rule="evenodd" clip-rule="evenodd" d="M0.645264 2.90543C0.645264 2.13695 0.950541 1.39995 1.49394 0.85655C2.03733 0.313154 2.77434 0.0078774 3.54281 0.0078774H32.4269C32.8077 0.0072554 33.1849 0.0817553 33.5369 0.227112C33.8889 0.372468 34.2088 0.585826 34.4782 0.854971C34.7477 1.12412 34.9614 1.44376 35.1071 1.79561C35.2529 2.14745 35.3278 2.52459 35.3276 2.90543V31.7895C35.328 32.1704 35.2533 32.5476 35.1078 32.8997C34.9622 33.2517 34.7487 33.5715 34.4795 33.841C34.2102 34.1104 33.8904 34.324 33.5385 34.4698C33.1866 34.6155 32.8094 34.6904 32.4284 34.6902H3.54281C3.16217 34.6902 2.78525 34.6152 2.4336 34.4695C2.08196 34.3237 1.76246 34.1102 1.49338 33.841C1.2243 33.5717 1.0109 33.2521 0.865374 32.9004C0.719852 32.5487 0.645057 32.1717 0.645264 31.7911V2.90543ZM14.3732 13.2313H19.0695V15.5897C19.7473 14.2339 21.4814 13.0137 24.0873 13.0137C29.0832 13.0137 30.2671 15.7142 30.2671 20.6691V29.8473H25.2114V21.7978C25.2114 18.9759 24.5335 17.3837 22.812 17.3837C20.4236 17.3837 19.4305 19.1005 19.4305 21.7978V29.8473H14.3732V13.2313ZM5.70258 29.6313H10.7599V13.0137H5.70258V29.6297V29.6313ZM11.4835 7.59384C11.493 8.02686 11.416 8.45741 11.2569 8.86024C11.0977 9.26307 10.8598 9.63006 10.5569 9.93968C10.254 10.2493 9.89235 10.4953 9.49312 10.6632C9.09389 10.8312 8.66514 10.9177 8.23202 10.9177C7.7989 10.9177 7.37015 10.8312 6.97092 10.6632C6.57168 10.4953 6.21002 10.2493 5.90715 9.93968C5.60428 9.63006 5.3663 9.26307 5.20719 8.86024C5.04807 8.45741 4.97102 8.02686 4.98055 7.59384C4.99927 6.7439 5.35005 5.93507 5.95778 5.34057C6.56551 4.74608 7.38187 4.41319 8.23202 4.41319C9.08217 4.41319 9.89853 4.74608 10.5063 5.34057C11.114 5.93507 11.4648 6.7439 11.4835 7.59384Z" fill="white"/>
</svg>
