<svg width="40" height="33" viewBox="0 0 40 33" fill="none" xmlns="http://www.w3.org/2000/svg">
<path d="M39.5983 4.22413C38.1634 4.8614 36.622 5.29199 35.0016 5.48661C36.6736 4.48385 37.9245 2.90561 38.5209 1.04639C36.95 1.98161 35.2308 2.6399 33.4379 2.99265C32.2322 1.70237 30.6353 0.847154 28.895 0.559776C27.1548 0.272397 25.3685 0.568934 23.8136 1.40335C22.2587 2.23776 21.0222 3.56337 20.296 5.17436C19.5697 6.78535 19.3945 8.59159 19.7974 10.3126C16.6144 10.1525 13.5006 9.32324 10.658 7.8788C7.81546 6.43436 5.30769 4.40698 3.29745 1.92823C2.6101 3.11665 2.21487 4.49454 2.21487 5.96198C2.2141 7.28302 2.53867 8.58382 3.15977 9.74898C3.78087 10.9141 4.67931 11.9076 5.77536 12.6413C4.50423 12.6007 3.26115 12.2565 2.14957 11.6371V11.7405C2.14944 13.5933 2.78887 15.3891 3.95934 16.8231C5.12982 18.2572 6.75926 19.2412 8.57117 19.6082C7.39199 19.9281 6.1557 19.9752 4.95569 19.746C5.46691 21.3402 6.4627 22.7343 7.80368 23.7331C9.14466 24.7319 10.7637 25.2854 12.4341 25.3161C9.59847 27.5472 6.0965 28.7575 2.49153 28.7522C1.85295 28.7523 1.2149 28.715 0.580688 28.6402C4.23994 30.9984 8.49958 32.25 12.8499 32.2451C27.5765 32.2451 35.6271 20.0198 35.6271 9.41702C35.6271 9.07255 35.6185 8.72464 35.603 8.38017C37.169 7.24509 38.5207 5.83952 39.5948 4.2293L39.5983 4.22413Z" fill="white"/>
</svg>
